<svg width="200" height="140" viewBox="0 0 200 140" fill="none" xmlns="http://www.w3.org/2000/svg">
  <!-- Brand Mark (center top) -->
  <g transform="translate(68, 10)">
    <path d="M32 4C32 4 48 16 48 32C48 42 41 50 32 58C23 50 16 42 16 32C16 16 32 4 32 4Z" fill="#56BFC0" fill-opacity="0.22" stroke="#3F9495" stroke-width="2.5" stroke-linecap="round" stroke-linejoin="round"/>
    <path d="M32 14C32 14 42 24 42 34C42 40 37.5 45 32 50C26.5 45 22 40 22 34C22 24 32 14 32 14Z" fill="#F7F5EF" stroke="#3F9495" stroke-width="2"/>
    <ellipse cx="32" cy="34" rx="5.5" ry="7.5" fill="#3F9495"/>
    <circle cx="32" cy="33" r="2.5" fill="#A9824D"/>
    <path d="M32 50V60" stroke="#3F9495" stroke-width="2.5" stroke-linecap="round"/>
  </g>
  <!-- Typography Centered -->
  <text x="100" y="102" text-anchor="middle" font-family="Nunito Sans, system-ui, -apple-system, sans-serif" font-size="20" font-weight="700" fill="#193B3B" letter-spacing="-0.3px">Nityasādhanā</text>
  <text x="100" y="122" text-anchor="middle" font-family="Noto Serif Devanagari, Georgia, serif" font-size="14" font-weight="500" fill="#A9824D" letter-spacing="0.5px">नित्यसाधना</text>
</svg>
